# xmcd CD database file
#
# Track frame offsets:
#	150
#	9685
#	30835
#	42385
#	63460
#	82585
#	101410
#	114985
#	130134
#	140485
#	156910
#	168460
#	190960
#	204535
#	218785
#	235660
#	249760
#
# Disc length: 3461 seconds
#
# Revision: 0
# Processed by: cddbd v1.5.1PL2 Copyright (c) Steve Scherf et al.
# Submitted via: CDex 1.51
#
DISCID=d70d8311
DTITLE=Badi Assad - The Best of Badi
DYEAR=2006
DGENRE=Jazz
TTITLE0=Sem Titulo
TTITLE1=Num Pagode em Planaltina
TTITLE2=Bate-Coxa
TTITLE3=Tamoimoe
TTITLE4=Escadao
TTITLE5=A Bela e a Fera
TTITLE6=Emotiva No. 1
TTITLE7=Bachianinha No. 1
TTITLE8=Rhythms
TTITLE9=Fuoco (Libra Sonatine)
TTITLE10=Valseana
TTITLE11=Pulo do Gato
TTITLE12=O Choro de Juliana
TTITLE13=Batucada (Nos e o Rio)
TTITLE14=When the Fire burns low
TTITLE15=A Primeira Vista
TTITLE16=Carta a L'Exlili
EXTD=YEAR: 2006
EXTT0=
EXTT1=
EXTT2=
EXTT3=
EXTT4=
EXTT5=
EXTT6=
EXTT7=
EXTT8=
EXTT9=
EXTT10=
EXTT11=
EXTT12=
EXTT13=
EXTT14=
EXTT15=
EXTT16=
PLAYORDER=
